<svg xmlns="http://www.w3.org/2000/svg" viewBox="0 0 282.53 22"><defs><style>.cls-1{fill:#fff;}</style></defs><title>sda_title</title><g id="Layer_2" data-name="Layer 2"><g id="Layer_1-2" data-name="Layer 1"><path class="cls-1" d="M276.14,14.33l.11-.18q2.16-3.48,3.42-5.64t1.91-3.4a10.85,10.85,0,0,0,.79-1.76,3.23,3.23,0,0,0,.15-.86A1.63,1.63,0,0,0,281.92,1,3.73,3.73,0,0,0,278.8.68a6,6,0,0,0-1.05.34l-.81,2.06q-.4,1-.77,1.94t-.76,1.89q-.39.95-.91,2.1l-.2.43h-1.15L269.9,2.9A4.89,4.89,0,0,0,268.45,1a3.51,3.51,0,0,0-1.93-.47,2.86,2.86,0,0,0-1.63.43,4.76,4.76,0,0,0-.87.73c.33.79.75,1.67,1.24,2.6.58,1.09,1.21,2.23,1.89,3.36s1.37,2.26,2.08,3.36,1.36,2.1,2,3l.13.19v5.18c0,.93.19,1.57.52,1.8a6.25,6.25,0,0,0,3.68.34l.61-.09Z"/><path class="cls-1" d="M246.54,14.21h3.09l3.3,5.3a9.82,9.82,0,0,0,.65,1,3.5,3.5,0,0,0,.67.67,2.66,2.66,0,0,0,.81.4,4,4,0,0,0,1.18.15,3,3,0,0,0,1.76-.55,2.62,2.62,0,0,0,1-1.28,22.38,22.38,0,0,0-1.79-2.49c-.87-1.06-1.75-2.21-2.63-3.41l-.5-.68.74-.4a7.75,7.75,0,0,0,2.55-2.28,5.68,5.68,0,0,0,1-3.46A6.35,6.35,0,0,0,256.06,2c-1.57-1.3-4-2-7.17-2a28.48,28.48,0,0,0-3.44.2,13.07,13.07,0,0,0-2.74.61,2.32,2.32,0,0,0-.88.51.86.86,0,0,0-.21.67v17.3a3.78,3.78,0,0,0,.17,1.28,1.31,1.31,0,0,0,.41.6,1.77,1.77,0,0,0,.76.32,9.94,9.94,0,0,0,3,0l.63-.09Zm0-10.27.6-.11.79-.12a9.07,9.07,0,0,1,1,0,5.19,5.19,0,0,1,3.3.88,3.25,3.25,0,0,1,1.18,2.69,3.39,3.39,0,0,1-1.05,2.66,3.93,3.93,0,0,1-2.69.9H246.5Z"/><path class="cls-1" d="M219.26,1.33a2.65,2.65,0,0,0-.7,2V18.84a2.44,2.44,0,0,0,2.68,2.68H232a1.45,1.45,0,0,0,1.08-.39,2.15,2.15,0,0,0,.39-1.48,4,4,0,0,0-.17-1.18,5,5,0,0,0-.2-.54h-9.73V12.6h7.49a1.42,1.42,0,0,0,1.06-.37,2.14,2.14,0,0,0,.37-1.46,3.9,3.9,0,0,0-.17-1.16,4.93,4.93,0,0,0-.2-.53h-8.56V4.19h8.48a1.48,1.48,0,0,0,1.08-.38,2.08,2.08,0,0,0,.38-1.46,4.07,4.07,0,0,0-.17-1.18,5,5,0,0,0-.2-.54H221.24A2.65,2.65,0,0,0,219.26,1.33Z"/><path class="cls-1" d="M206.88.71a7.94,7.94,0,0,0-1,.36Q205,4.94,204,8.85c-.69,2.7-1.38,5.24-2,7.55l-.15.53h-1.32l-.16-.52-2.11-6.85c-.67-2.17-1.35-4.5-2-6.91a2.81,2.81,0,0,0-1-1.69,4.18,4.18,0,0,0-3.6-.09,5.06,5.06,0,0,0-1,.53q.36,1.41.83,3,.55,1.83,1.17,3.73t1.3,3.74q.68,1.85,1.32,3.5t1.22,3q.58,1.33,1,2.16a2.09,2.09,0,0,0,1.13.91,7.45,7.45,0,0,0,4.52.1,4.11,4.11,0,0,0,1.27-.58,13.33,13.33,0,0,0,.94-1.77q.65-1.4,1.4-3.24T208.22,12q.75-2.08,1.35-4c.4-1.28.73-2.43,1-3.43a10,10,0,0,0,.36-2.17A1.43,1.43,0,0,0,210.3,1a3.54,3.54,0,0,0-1.92-.49A5.37,5.37,0,0,0,206.88.71Z"/><path class="cls-1" d="M183.15,2.61A3.76,3.76,0,0,0,183,1.33a1.27,1.27,0,0,0-.42-.59,1.92,1.92,0,0,0-.79-.33,9.24,9.24,0,0,0-2.93,0l-.66.1V19.28a3.78,3.78,0,0,0,.17,1.28,1.25,1.25,0,0,0,.41.59,1.92,1.92,0,0,0,.79.33,10,10,0,0,0,3,0l.62-.09Z"/><path class="cls-1" d="M161.2,1.29a1.25,1.25,0,0,0-.41-.59A1.92,1.92,0,0,0,160,.37a9.19,9.19,0,0,0-2.93,0l-.66.1V18.84a2.44,2.44,0,0,0,2.68,2.68h9.84a1.56,1.56,0,0,0,1.14-.4,2.23,2.23,0,0,0,.4-1.55,3.85,3.85,0,0,0-.19-1.19,5.51,5.51,0,0,0-.22-.58h-8.71V2.57A3.78,3.78,0,0,0,161.2,1.29Z"/><path class="cls-1" d="M134.06,1.33a2.65,2.65,0,0,0-.7,2V18.84A2.44,2.44,0,0,0,136,21.52h10.72a1.44,1.44,0,0,0,1.08-.39,2.14,2.14,0,0,0,.39-1.48,4.07,4.07,0,0,0-.17-1.18,5.11,5.11,0,0,0-.2-.54h-9.73V12.6h7.49a1.42,1.42,0,0,0,1.06-.37,2.14,2.14,0,0,0,.37-1.46,3.88,3.88,0,0,0-.17-1.16,5,5,0,0,0-.2-.53h-8.56V4.19h8.48a1.48,1.48,0,0,0,1.09-.38,2.08,2.08,0,0,0,.38-1.46,4.06,4.06,0,0,0-.17-1.18,5,5,0,0,0-.2-.54H136A2.65,2.65,0,0,0,134.06,1.33Z"/><path class="cls-1" d="M122,2.67a10,10,0,0,0-3.73-2,17.46,17.46,0,0,0-5-.67c-.9,0-1.94.05-3.09.16A14.74,14.74,0,0,0,107,.81a2.29,2.29,0,0,0-.87.5A.86.86,0,0,0,106,2V19.14a2,2,0,0,0,1.55,2,8.12,8.12,0,0,0,1.47.42q.84.16,1.68.27t1.61.14c.53,0,1,0,1.4,0a15.7,15.7,0,0,0,4.81-.7,9.86,9.86,0,0,0,3.64-2.07,9.19,9.19,0,0,0,2.33-3.4,13,13,0,0,0,.83-4.85A12.85,12.85,0,0,0,124.41,6,9,9,0,0,0,122,2.67Zm-2.35,11.62a6,6,0,0,1-1.34,2.28,5.33,5.33,0,0,1-2.08,1.32,7.63,7.63,0,0,1-2.54.41c-.36,0-.75,0-1.17-.06s-.77-.09-1.06-.14l-.6-.11v-14l.64-.08q.57-.08,1.13-.11t1.1,0a6.06,6.06,0,0,1,4.65,1.91,7.84,7.84,0,0,1,1.74,5.48A9.92,9.92,0,0,1,119.67,14.29Z"/><path class="cls-1" d="M73.31,1.33a2.65,2.65,0,0,0-.7,2V18.84a2.44,2.44,0,0,0,2.68,2.68H86a1.44,1.44,0,0,0,1.08-.39,2.14,2.14,0,0,0,.39-1.48,4.07,4.07,0,0,0-.17-1.18,5.11,5.11,0,0,0-.2-.54H77.38V12.6h7.49a1.42,1.42,0,0,0,1.06-.37,2.14,2.14,0,0,0,.37-1.46,3.88,3.88,0,0,0-.17-1.16,5,5,0,0,0-.2-.53H77.38V4.19h8.48A1.48,1.48,0,0,0,87,3.81a2.08,2.08,0,0,0,.38-1.46,4.06,4.06,0,0,0-.17-1.18A5,5,0,0,0,87,.62H75.29A2.65,2.65,0,0,0,73.31,1.33Z"/><path class="cls-1" d="M55.13,13.52h7.16a1.5,1.5,0,0,0,1.12-.39,2.15,2.15,0,0,0,.39-1.48,4.06,4.06,0,0,0-.17-1.18,3.68,3.68,0,0,0-.21-.54H55.05V4.3H63.5a1.49,1.49,0,0,0,1.11-.39A2.22,2.22,0,0,0,65,2.39a4.25,4.25,0,0,0-.17-1.21,5.18,5.18,0,0,0-.2-.56H52.85a2.65,2.65,0,0,0-2,.7,2.65,2.65,0,0,0-.7,2v16a3.78,3.78,0,0,0,.17,1.28,1.25,1.25,0,0,0,.41.59,1.92,1.92,0,0,0,.79.33,10,10,0,0,0,3,0l.62-.09Z"/><path class="cls-1" d="M40,11.61q-.77-2.69-1.54-5.22T37,2A2.12,2.12,0,0,0,35.64.74,9.27,9.27,0,0,0,30.28.56a8.4,8.4,0,0,0-1.49.51q-.24.63-.61,1.64-.46,1.24-1,2.83L26,8.95q-.62,1.79-1.17,3.49t-1,3.17q-.46,1.45-.71,2.43c-.12.47-.24.88-.33,1.23a3,3,0,0,0-.12.83,1.34,1.34,0,0,0,.59,1.18,4.23,4.23,0,0,0,2.35.51,5.68,5.68,0,0,0,1.22-.11l.64-.17q.24-.92.48-1.88.29-1.18.59-2.29l.14-.55h7.78l.8,3.08a6,6,0,0,0,.37,1,1.42,1.42,0,0,0,.41.51,2,2,0,0,0,.72.31,5.74,5.74,0,0,0,1.31.12,5.56,5.56,0,0,0,1.85-.27,2.88,2.88,0,0,0,.74-.37q-.51-1.86-1.17-4.21Q40.76,14.3,40,11.61ZM29.35,13.29l.24-.92c.35-1.31.74-2.62,1.17-3.89s.81-2.4,1.16-3.43l.17-.5h1.3l.15.53q.44,1.51,1,3.4t1.05,3.89l.24.92Z"/><path class="cls-1" d="M1.88,21a9.22,9.22,0,0,0,2.35.75,16.24,16.24,0,0,0,3,.26c3,0,5.28-.6,6.78-1.77a5.37,5.37,0,0,0,2.18-4.47,5.26,5.26,0,0,0-1.62-4.11A13.45,13.45,0,0,0,9.55,9L7.6,8.38A5.56,5.56,0,0,1,6,7.63a1.79,1.79,0,0,1-.78-1.49A2,2,0,0,1,6.31,4.35a5.52,5.52,0,0,1,2.8-.56,11.63,11.63,0,0,1,3.18.41,10.21,10.21,0,0,1,1.88.71,3.94,3.94,0,0,0,.54-.66A2.2,2.2,0,0,0,15,3a1.93,1.93,0,0,0-.4-1.22,3.37,3.37,0,0,0-1.26-1A8.08,8.08,0,0,0,11.23.21,17.7,17.7,0,0,0,8.41,0,10.08,10.08,0,0,0,2.12,1.72,5.27,5.27,0,0,0,0,6.13,5.64,5.64,0,0,0,.46,8.55a5,5,0,0,0,1.3,1.68A8.36,8.36,0,0,0,3.85,11.5c.86.37,1.83.74,2.88,1.1l1.54.51a8.3,8.3,0,0,1,1.82.84A2,2,0,0,1,11,15.68a2.3,2.3,0,0,1-1,1.87,5,5,0,0,1-3,.7,9.54,9.54,0,0,1-3.52-.64,11.36,11.36,0,0,1-2.28-1.19,4.44,4.44,0,0,0-.76.73A2,2,0,0,0,0,18.51a2.16,2.16,0,0,0,.45,1.37A4,4,0,0,0,1.88,21Z"/></g></g></svg>