<?xml version="1.0" encoding="UTF-8"?>
<svg width="96px" height="96px" viewBox="0 0 96 96" version="1.1" xmlns="http://www.w3.org/2000/svg" xmlns:xlink="http://www.w3.org/1999/xlink">
    <!-- Generator: Sketch 55.2 (78181) - https://sketchapp.com -->
    <title>Settings</title>
    <desc>Created with Sketch.</desc>
    <g id="Icons" stroke="none" stroke-width="1" fill="none" fill-rule="evenodd">
        <g id="Settings" transform="translate(-16.000000, -16.000000)" fill="#FFFEFE">
            <path d="M110.086261,55.6605217 L98.2114783,54.6692174 C97.4267826,51.7871304 96.2768696,49.0198261 94.7826087,46.4132174 L102.485565,37.3078261 C103.186783,36.4813913 103.136696,35.2521739 102.368696,34.4841739 L93.5137391,25.6313043 C92.7478261,24.8674783 91.5186087,24.8111304 90.690087,25.5123478 L81.5846957,33.2173913 C78.976,31.7231304 76.2086957,30.5732174 73.3286957,29.7885217 L72.3394783,17.9137391 C72.2497391,16.8306087 71.346087,16 70.2608696,16 L57.7391304,16 C56.653913,16 55.7502609,16.8306087 55.6584348,17.9137391 L54.6692174,29.7885217 C51.7892174,30.5732174 49.021913,31.7231304 46.4132174,33.2173913 L37.3078261,25.5144348 C36.4813913,24.8132174 35.2521739,24.8674783 34.4841739,25.6333913 L25.6313043,34.4841739 C24.8633043,35.250087 24.8132174,36.4793043 25.5144348,37.3078261 L33.2173913,46.4132174 C31.7210435,49.021913 30.5732174,51.7892174 29.7885217,54.6692174 L17.9137391,55.6605217 C16.8326957,55.7502609 16,56.6518261 16,57.7391304 L16,70.2608696 C16,71.3481739 16.8326957,72.2497391 17.9137391,72.3394783 L29.7885217,73.3307826 C30.5732174,76.2128696 31.7231304,78.9801739 33.2173913,81.5867826 L25.5144348,90.688 C24.8132174,91.5165217 24.8633043,92.7436522 25.6313043,93.5137391 L34.4862609,102.368696 C35.2542609,103.134609 36.4834783,103.190957 37.309913,102.487652 L46.4153043,94.7846957 C49.024,96.2789565 51.7913043,97.4288696 54.6713043,98.2135652 L55.6605217,110.088348 C55.7502609,111.169391 56.653913,112 57.7391304,112 L70.2608696,112 C71.346087,112 72.2497391,111.169391 72.3415652,110.086261 L73.3307826,98.2114783 C76.2107826,97.4267826 78.978087,96.2768696 81.5867826,94.7826087 L90.6921739,102.485565 C91.5206957,103.18887 92.749913,103.134609 93.5158261,102.366609 L102.370783,93.5116522 C103.138783,92.7436522 103.18887,91.5165217 102.487652,90.685913 L94.7846957,81.5846957 C96.2789565,78.978087 97.4288696,76.2107826 98.2135652,73.3286957 L110.088348,72.3373913 C111.167304,72.2497391 112,71.3481739 112,70.2608696 L112,57.7391304 C112,56.6518261 111.167304,55.7502609 110.086261,55.6605217 Z M64,78.6086957 C55.9443478,78.6086957 49.3913043,72.0535652 49.3913043,64 C49.3913043,55.9464348 55.9443478,49.3913043 64,49.3913043 C72.0556522,49.3913043 78.6086957,55.9464348 78.6086957,64 C78.6086957,72.0535652 72.0556522,78.6086957 64,78.6086957 Z"></path>
        </g>
    </g>
</svg>